<svg
    width="121"
    height="36"
    viewBox="0 0 121 36"
    fill="none"
    xmlns="http://www.w3.org/2000/svg"
>
    <path
        d="M42.3113 12.7891H38.9445V11.512C38.9445 10.2455 39.4722 9.53843 40.897 9.53843C41.4986 9.53843 42.0052 9.67563 42.3218 9.77062L43.0923 6.8155C42.5962 6.64663 41.5092 6.37223 40.1899 6.37223C37.372 6.37223 35.124 7.98699 35.124 11.2587V12.7891H32.7282V15.7442H35.124V29H38.9445V15.7442H42.3113V12.7891ZM47.678 35.0791C50.6542 35.0791 52.3745 33.5488 53.2927 30.963L59.8045 12.8102L55.7201 12.7891L51.9734 25.0317H51.8046L48.0685 12.7891H44.0157L49.8943 29.3377L49.5671 30.2137C48.86 32.0607 47.7413 32.1873 46.0738 31.7018L45.1872 34.6781C45.7044 34.8891 46.6331 35.0791 47.678 35.0791ZM66.2767 7.38541H62.4562V29H66.2767V7.38541ZM70.2055 29H74.026V12.7891H70.2055V29ZM72.1263 10.4883C73.34 10.4883 74.3321 9.55954 74.3321 8.41971C74.3321 7.26932 73.34 6.34057 72.1263 6.34057C70.902 6.34057 69.91 7.26932 69.91 8.41971C69.91 9.55954 70.902 10.4883 72.1263 10.4883ZM88.2871 22.1821C88.2871 24.6518 86.5246 25.876 84.836 25.876C82.9996 25.876 81.7753 24.5779 81.7753 22.5198V12.7891H77.9547V23.1109C77.9547 27.0053 80.1711 29.2111 83.3584 29.2111C85.7858 29.2111 87.4956 27.934 88.2343 26.1188H88.4032V29H92.1077V12.7891H88.2871V22.1821ZM96.0364 29H99.8569V19.1426C99.8569 17.1479 101.187 15.7969 102.833 15.7969C104.448 15.7969 105.556 16.884 105.556 18.5515V29H109.303V18.8893C109.303 17.0634 110.39 15.7969 112.237 15.7969C113.778 15.7969 115.002 16.7046 115.002 18.7099V29H118.833V18.1188C118.833 14.4988 116.743 12.578 113.767 12.578C111.414 12.578 109.619 13.7389 108.902 15.5437H108.733C108.11 13.7073 106.538 12.578 104.353 12.578C102.179 12.578 100.553 13.6967 99.878 15.5437H99.6881V12.7891H96.0364V29Z"
        fill="#6924FF"
    ></path>
    <circle
        cx="13.3759"
        cy="18.0968"
        r="11.8165"
        stroke="#6924FF"
        stroke-width="3.11892"
    ></circle>
    <path
        d="M1.57373 19.0804C2.11555 15.9632 5.05081 11.5991 12.4573 19.0804C19.8637 26.5617 24.024 22.1976 25.1783 19.0804"
        stroke="#6924FF"
        stroke-width="2.75387"
        stroke-linecap="round"
    ></path>
</svg>
